<svg width="40" height="40" viewBox="0 0 40 40" fill="none" xmlns="http://www.w3.org/2000/svg">
<g filter="url(#filter0_d_196_59)">
<rect x="6" y="2" width="28" height="28" rx="14" fill="#25D366"/>
<rect x="5" y="1" width="30" height="30" rx="15" stroke="white" stroke-width="2"/>
<path d="M25.5519 10.4167C24.8299 9.68738 23.9699 9.10916 23.0222 8.71571C22.0744 8.32226 21.0577 8.12147 20.0315 8.12505C15.7318 8.12505 12.2274 11.6294 12.2274 15.9291C12.2274 17.3073 12.5897 18.646 13.2669 19.8273L12.1644 23.875L16.2988 22.7883C17.4407 23.4104 18.7243 23.7411 20.0315 23.7411C24.3313 23.7411 27.8356 20.2368 27.8356 15.937C27.8356 13.8502 27.0245 11.8893 25.5519 10.4167ZM20.0315 22.4181C18.866 22.4181 17.7242 22.1031 16.724 21.5125L16.4878 21.3708L14.0308 22.0165L14.6844 19.6225L14.5269 19.3784C13.8794 18.3444 13.5356 17.1492 13.5347 15.9291C13.5347 12.3539 16.4484 9.44017 20.0237 9.44017C21.7561 9.44017 23.3863 10.1174 24.6069 11.3459C25.2113 11.9475 25.6903 12.6631 26.016 13.4512C26.3418 14.2393 26.5079 15.0842 26.5048 15.937C26.5205 19.5123 23.6068 22.4181 20.0315 22.4181ZM23.591 17.5671C23.3941 17.4726 22.4334 17.0001 22.2601 16.9293C22.079 16.8663 21.953 16.8348 21.8191 17.0238C21.6853 17.2206 21.3152 17.6616 21.2049 17.7876C21.0947 17.9215 20.9765 17.9373 20.7797 17.8349C20.5828 17.7404 19.9528 17.5278 19.2125 16.8663C18.6298 16.3465 18.2439 15.7086 18.1258 15.5118C18.0155 15.3149 18.11 15.2125 18.2124 15.1102C18.299 15.0235 18.4093 14.8818 18.5038 14.7715C18.5983 14.6613 18.6377 14.5747 18.7007 14.4487C18.7637 14.3148 18.7322 14.2045 18.6849 14.11C18.6377 14.0155 18.2439 13.0548 18.0864 12.661C17.9289 12.283 17.7635 12.3303 17.6454 12.3224H17.2674C17.1335 12.3224 16.9288 12.3697 16.7477 12.5665C16.5744 12.7634 16.0704 13.2359 16.0704 14.1967C16.0704 15.1574 16.7713 16.0866 16.8658 16.2126C16.9603 16.3465 18.2439 18.3153 20.1969 19.1579C20.6615 19.3626 21.0238 19.4808 21.3073 19.5674C21.7719 19.717 22.1971 19.6934 22.5358 19.6461C22.9138 19.591 23.6934 19.1736 23.8509 18.7169C24.0163 18.2601 24.0163 17.8743 23.9611 17.7876C23.906 17.701 23.7879 17.6616 23.591 17.5671Z" fill="white" stroke="white" stroke-width="0.2"/>
</g>
<defs>
<filter id="filter0_d_196_59" x="0" y="0" width="40" height="40" filterUnits="userSpaceOnUse" color-interpolation-filters="sRGB">
<feFlood flood-opacity="0" result="BackgroundImageFix"/>
<feColorMatrix in="SourceAlpha" type="matrix" values="0 0 0 0 0 0 0 0 0 0 0 0 0 0 0 0 0 0 127 0" result="hardAlpha"/>
<feOffset dy="4"/>
<feGaussianBlur stdDeviation="2"/>
<feComposite in2="hardAlpha" operator="out"/>
<feColorMatrix type="matrix" values="0 0 0 0 0 0 0 0 0 0 0 0 0 0 0 0 0 0 0.25 0"/>
<feBlend mode="normal" in2="BackgroundImageFix" result="effect1_dropShadow_196_59"/>
<feBlend mode="normal" in="SourceGraphic" in2="effect1_dropShadow_196_59" result="shape"/>
</filter>
</defs>
</svg>
